<?xml version="1.0" encoding="UTF-8"?>
<svg id="Layer_1" data-name="Layer 1" xmlns="http://www.w3.org/2000/svg" viewBox="0 0 896 957.66">
  <defs>
    <style>
      .cls-1 {
        fill: #fff;
      }

      .cls-2 {
        fill: #2684ff;
      }
    </style>
  </defs>
  <path class="cls-2" d="M154.3,719.29c-19.24,28.31-23.04,56.84-10.4,86.81,16.49,39.08,59.63,60.18,100.17,49.81,41.53-10.62,69.01-49.03,65.51-91.56-4.23-51.26-52.18-86.84-104.16-77.29-9.44,1.73-15.89-1.75-17.21-9.3-1.23-6.98,3.45-12.21,12.76-14.25,59.83-13.13,120.25,27.56,131.32,88.43,11.09,61-30.96,120.38-91.5,129.22-69.86,10.2-130.49-43.29-128.22-113.36,.78-24.05,8.97-45.65,23.96-65-6.05-5.54-11.87-10.88-18.78-17.21-.41,.63-1.37,2.36-2.57,3.9-62.68,80.32-13.6,202.14,87.29,216.65,87.44,12.58,162.88-57.28,156.42-144.84-6.59-89.35-98.77-148.31-182.79-116.89-2.64,.99-5.2,2.22-7.88,3.09-7.27,2.34-13.34-.22-15.97-6.59-2.62-6.35-.26-13.09,7.06-15.54,13.81-4.62,27.74-9.91,42.04-11.89,80.53-11.19,155.02,38.66,176.59,117.28,25.39,92.53-39.15,188.53-134.32,199.81-87.06,10.32-164.81-47.67-178.5-134.14-7.09-44.76,3.8-85.62,31.12-121.94,1.69-2.25,3.45-4.44,6.33-8.14-2.94-2.27-6.03-4.22-8.58-6.72-7.3-7.17-8.09-13.8-2.67-19.41,5.47-5.66,12.27-4.98,19.47,2.13,17.18,16.98,34.35,33.96,51.42,51.05,22.34,22.35,44.62,44.77,66.79,67.28,2.45,2.48,5.81,5.91,5.64,8.7-.26,4.31-2.2,9.55-5.27,12.4-4.41,4.09-10.34,2.82-14.61-1.43-7.99-7.95-15.65-16.24-24.13-25.11-5.38,9.33-5.52,17.67-3.21,26.22,4.54,16.82,19.01,27.68,36.42,27.51,16.86-.17,30.98-11.29,35.39-27.88,4.28-16.1-2.89-33.12-17.54-41.57-1.78-1.02-3.74-1.75-5.45-2.86-5.33-3.45-7.79-8.14-5.48-14.44,2.44-6.65,7.59-8.76,14.17-7.49,2.45,.47,4.82,1.72,7.07,2.9,29.73,15.65,41.26,52.17,25.96,82.1-15.3,29.94-51.41,41.97-81.72,27.24-30.01-14.59-43-50.97-28.28-81.19,3.2-6.58,2.85-10.42-2.61-14.85-3.75-3.04-6.74-7.01-11.06-11.63Z"/>
  <path class="cls-2" d="M551.66,221.17c4.44,2.43,8.98,3.96,12.28,6.88,10.83,9.58,21.64,12.24,34.92,4.19,4.83-2.93,8.05-5.07,8.79-10.88,.78-6.08,2.76-11.99,3.95-18.03,1.47-7.5,6.11-11.07,13.47-11.14,11.82-.13,23.64-.15,35.46,.02,7,.1,11.57,3.56,13.06,10.67,1.47,7.03,2.62,14.18,4.82,20.98,.92,2.84,4.02,5.08,6.42,7.27,1.05,.96,3.07,.79,4.24,1.67,11.01,8.3,20.63,4.83,29.97-3.11,2.52-2.14,5.52-3.75,8.44-5.36,5.28-2.9,10.49-2.65,14.89,1.64,9.02,8.79,17.89,17.72,26.73,26.69,4.32,4.39,4.6,9.53,1.94,14.88-.91,1.83-1.94,3.69-3.3,5.19-10.54,11.59-13.66,23.94-3.75,37.45,1.89,2.58,4.46,5.46,7.3,6.37,6.81,2.2,13.96,3.3,20.98,4.85,7.04,1.56,10.5,6.06,10.55,13.15,.08,11.82,.06,23.64,0,35.46-.03,7.07-3.35,11.65-10.43,13.23-1.75,.39-3.49,.86-5.24,1.24-21.81,4.8-21.91,4.76-29.77,25.46-.81,2.12-.09,5.47,1.11,7.59,3.4,6.02,7.5,11.65,11.17,17.53,4.67,7.48,4.24,12.43-1.8,18.64-7.89,8.1-15.97,16.01-23.93,24.03-5.49,5.54-11.45,6.35-18.02,2.01-1.5-.99-3.01-1.96-4.53-2.93-18.44-11.83-18.49-11.93-38.34-2.44-2.09,1-3.94,3.87-4.6,6.23-1.99,7.16-3.28,14.51-4.96,21.76-1.54,6.66-5.87,10.03-12.67,10.06-12.08,.05-24.15,.05-36.23,0-6.8-.03-11.1-3.35-12.72-10.01-.43-1.75-.92-3.48-1.29-5.23-4.68-21.83-4.64-21.93-25.21-29.85-2.15-.83-5.51-.3-7.6,.86-6.27,3.5-12.2,7.6-18.23,11.52-6.56,4.26-12.5,3.66-18.02-1.94-8.13-8.23-16.34-16.37-24.51-24.55-5.31-5.32-5.79-11.15-1.83-17.44,.82-1.3,1.48-2.78,2.55-3.85,12.05-12.09,12.09-25.21,3.14-38.86-1.47-2.24-4.21-4.29-6.77-5.03-6.88-2-13.98-3.26-20.99-4.78-7.06-1.53-10.51-6.02-10.56-13.12-.07-11.82-.05-23.64,0-35.46,.03-7.08,3.39-11.63,10.41-13.27,1.75-.41,3.48-1.14,5.24-1.21,14.98-.63,25.25-6.67,28.84-22.47,1.04-4.56,2.1-7.85-.94-11.91-3.99-5.33-7.38-11.12-10.94-16.77-3.94-6.27-3.42-12.08,1.92-17.41,8.36-8.35,16.52-16.92,25.08-25.07,2.42-2.3,5.95-3.44,9.53-5.42Zm226.56,121.92c-7.33-1.65-14.48-3.53-21.74-4.83-6.8-1.22-10.68-4.79-13-11.39-3.3-9.39-7.15-18.66-11.64-27.53-3.04-6.01-3.14-11.03,.59-16.52,4.42-6.5,8.57-13.18,11.79-18.17-4.74-5.46-8.55-9.86-12.51-14.41-6.45,4.12-12.8,7.99-18.94,12.17-5.72,3.9-10.95,3.82-17.22,.62-8.63-4.4-17.7-8.08-26.9-11.13-6.61-2.2-10.5-5.82-11.83-12.61-1.47-7.51-3.26-14.96-4.93-22.53h-18.5c-1.7,7.77-3.42,15.26-4.95,22.79-1.3,6.44-5.01,10.04-11.3,12.21-9.41,3.24-18.72,6.97-27.63,11.38-5.99,2.97-11.02,3.23-16.53-.52-6.51-4.43-13.21-8.58-20.28-13.14-3.16,3.39-5.55,6.48-8.47,8.94-3.67,3.09-4.03,5.76-1.06,9.69,3.71,4.9,6.68,10.35,10.12,15.47,3.37,5.02,3.08,9.73,.49,15.18-4.38,9.22-8.35,18.68-11.78,28.29-2.24,6.25-5.89,9.86-12.36,11.13-7.49,1.46-14.91,3.32-22.49,5.03v18.34c6.74,1.56,13.16,3.47,19.72,4.45,8.7,1.3,13.71,5.55,15.66,14.38,1.31,5.94,3.13,12.36,6.67,17.09,9.22,12.32,7.35,23.09-2.22,33.76-.17,.19-.28,.43-.42,.65-6.74,10.39-6.59,10.24,2.28,19.12,3.1,3.1,5.44,3.84,9.13,1.13,4.76-3.48,9.98-6.31,14.84-9.66,5.46-3.76,10.61-3.64,16.59-.74,8.73,4.24,17.71,8.13,26.91,11.18,7.21,2.39,11.18,6.43,12.44,13.89,1.18,7.03,3.09,13.94,4.71,21.08h18.47c1.66-7.46,3.43-14.66,4.84-21.93,1.3-6.74,4.84-10.93,11.65-12.75,5.68-1.51,11.42-3.27,16.65-5.88,21.59-10.78,16.49-12.05,39.77,3.21,5.36,3.51,8.56,3.69,13.51-1.09,5.59-5.41,7.41-9.55,1.78-15.8-2.89-3.2-4.68-7.36-7.26-10.88-4.31-5.88-4.09-11.38-.7-17.88,4.36-8.36,8.07-17.17,11-26.13,2.37-7.24,6.48-11.2,13.87-12.49,7.04-1.23,13.99-2.99,21.18-4.56v-18.61Z"/>
  <path class="cls-2" d="M339.37,414.21c-22.63-26.46-30.03-55.49-29.71-87.46,.5-50.26-31.66-93.32-79.07-107.39-47.41-14.07-98.22,4.36-125.21,46.42-23.15,36.07-25.12,74.22-4.91,111.87,20.4,37.99,53.18,58.3,96.76,59.38,15.38,.38,30.81-.98,45.75,4.19,5.46,1.89,9.55,5.55,8.92,11.04-.45,3.97-3.45,8.33-6.58,11.06-1.97,1.71-6.31,1.13-9.53,.9-10.94-.8-21.89-3.02-32.78-2.71-72.03,2.05-133.11-52.28-139.65-124.75-6.2-68.78,44.58-133.34,113.69-144.54,82.16-13.32,157.08,50.05,156.88,133.36-.07,28.02,5.1,53.6,25.45,74.28,6.67,6.77,13.53,13.35,20.24,20.08,17.37,17.44,17.39,38.9,0,56.43-10.5,10.58-21.03,21.12-31.74,31.49-16.59,16.05-37.53,15.96-54.19-.06-4.82-4.63-9.55-9.35-14.33-14.01-7.39-7.21-7.63-13.82-.34-21.17,17.55-17.7,35.19-35.31,52.88-52.87,1.99-1.98,4.54-3.39,7.47-5.53Zm18.92,16.53c-18.77,18.8-36.05,36.1-54.2,54.27,2.29,1.96,5.15,4.51,8.11,6.93,5.78,4.74,11.95,5.04,17.37-.14,11.87-11.34,23.51-22.92,34.94-34.7,5.41-5.57,5.06-11.98,.13-18.01-2.42-2.96-4.64-6.09-6.35-8.35Z"/>
  <path class="cls-2" d="M643.12,908.21c82.06-.76,145.38-73.36,134.18-154.27-.35-2.54-.72-5.09-.99-7.64-.79-7.34,3.16-13.1,9.76-14.32,6.33-1.16,12.38,3.13,13.81,10.39,5.75,29.21,3.08,57.78-7.34,85.57-25.26,67.38-93.71,110.63-163.64,103.57-74.49-7.52-132.93-62.21-144.59-135.3-14.41-90.35,52.06-175.29,143.6-183.6,36.32-3.3,69.78,4.98,100.67,24.2,5.39,3.35,8.84,8.13,6.38,14.06-1.52,3.67-5.66,7.71-9.35,8.6-3.52,.85-8.39-1.46-11.94-3.59-23.34-13.93-48.54-20.58-75.64-19.89-68.5,1.73-127.15,58.42-131.03,126.55-4.06,71.12,45.84,133.62,114.7,143.56,7.1,1.02,14.28,1.42,21.42,2.11Z"/>
  <path class="cls-2" d="M642.82,794.16c15.35-15.37,30.04-30.07,44.73-44.77,24.5-24.52,49.01-49.03,73.52-73.54,.73-.73,1.44-1.47,2.17-2.19,6.93-6.78,14.25-7.6,19.52-2.17,5.26,5.41,4.35,12.39-2.64,19.48-6.49,6.58-13.03,13.11-19.57,19.65-35.03,35.05-70.07,70.09-105.11,105.13-10.37,10.37-15.15,10.35-25.55-.04-19.07-19.06-38.13-38.13-57.19-57.19-1.09-1.09-2.21-2.15-3.25-3.28-5.6-6.05-6.07-12.79-1.28-17.85,5.11-5.39,12.13-5.28,18.34,.84,16.63,16.41,33.08,33.01,49.61,49.51,1.97,1.97,4.02,3.85,6.7,6.42Z"/>
  <path class="cls-2" d="M227.4,346.92c-6.68,7.56-12.19,14.27-18.21,20.48-6.43,6.64-13.74,7.16-18.93,1.97-5.41-5.42-4.83-12.12,1.83-18.89,10.63-10.8,21.27-21.59,32.03-32.26,7.86-7.79,18.65-5.21,21.62,5.38,8.47,30.13,24.85,55.48,45.9,78.21,2.8,3.03,5.94,7.41,5.79,11.04-.16,3.82-3.25,8.76-6.55,10.91-4.88,3.18-10.33,1.28-14.56-3.07-18.06-18.56-32.91-39.33-43.77-62.9-1.26-2.73-2.57-5.43-5.15-10.89Z"/>
  <path class="cls-2" d="M493.3,220.4c-20.19-1.32-40.45-4.39-60.55-3.52-25.74,1.12-51.35,5.41-77.01,8.36-1.52,.18-3.02,.56-4.54,.84-7.51,1.37-13.51-1.9-15.12-8.21-1.77-6.94,1.91-13.39,9.51-14.99,13.78-2.9,27.6-5.81,41.54-7.63,34.01-4.45,68.04-3.85,101.97,1.33,2.53,.39,5.08,.76,7.56,1.38,6.85,1.71,10.9,7.25,9.92,13.39-1,6.32-6.23,10.26-13.29,9.05Z"/>
  <path class="cls-2" d="M433.12,933.18c-20.4-2.04-40.8-3.94-61.17-6.2-8.46-.94-13.49-6.74-12.69-13.56,.87-7.39,7.04-11.82,15.97-10.37,38.58,6.27,77.1,6.22,115.68-.02,8.92-1.44,15.05,3.15,15.77,10.61,.65,6.81-4.31,12.41-12.92,13.37-20.11,2.26-40.26,4.12-60.63,6.16Z"/>
  <path class="cls-2" d="M804,563.46c-2.19,20.06-4.19,40.96-6.88,61.78-.98,7.61-6.95,11.48-13.59,10.46-6.57-1.01-10.24-6.28-9.83-14.15,.08-1.54,.31-3.06,.41-4.6,1.45-21.2,3.77-42.4,4.04-63.62,.19-14.78-2.05-29.64-3.88-44.38-1.55-12.46,.89-18.84,9.2-20.36,8.08-1.47,13.46,4.28,14.76,16.45,2.04,19.1,3.79,38.23,5.77,58.4Z"/>
  <path class="cls-2" d="M97.36,475.33c-2.66,16.04-6.13,29.87-7.01,43.86-1.48,23.5-1.34,47.09-1.8,70.65-.06,3.07,.52,6.15,.44,9.22-.18,6.9-3.91,11.19-10.66,11.92-6.83,.74-11.57-2.88-12.83-9.53-1.19-6.27-1.46-12.73-1.81-19.13-1.99-36.11,1.25-71.76,9.87-106.89,1.9-7.73,7.07-11.43,13.71-10.48,6.09,.88,10.19,6.01,10.09,10.38Z"/>
  <path class="cls-2" d="M778.22,343.09v18.61c-7.18,1.57-14.13,3.33-21.18,4.56-7.39,1.29-11.5,5.25-13.87,12.49-2.93,8.96-6.64,17.77-11,26.13-3.39,6.5-3.61,12,.7,17.88,2.57,3.52,4.37,7.68,7.26,10.88,5.63,6.25,3.82,10.39-1.78,15.8-4.94,4.78-8.14,4.6-13.51,1.09-23.29-15.26-18.19-13.99-39.77-3.21-5.23,2.61-10.97,4.37-16.65,5.88-6.82,1.81-10.35,6-11.65,12.75-1.41,7.27-3.17,14.47-4.84,21.93h-18.47c-1.63-7.14-3.53-14.05-4.71-21.08-1.25-7.47-5.23-11.5-12.44-13.89-9.2-3.05-18.18-6.94-26.91-11.18-5.97-2.9-11.13-3.02-16.59,.74-4.86,3.35-10.08,6.18-14.84,9.66-3.7,2.7-6.03,1.97-9.13-1.13-8.87-8.88-9.02-8.73-2.28-19.12,.14-.22,.25-.46,.42-.65,9.57-10.67,11.45-21.45,2.22-33.76-3.55-4.74-5.36-11.16-6.67-17.09-1.95-8.83-6.96-13.08-15.66-14.38-6.56-.98-12.98-2.89-19.72-4.45v-18.34c7.57-1.71,14.99-3.57,22.49-5.03,6.48-1.27,10.13-4.88,12.36-11.13,3.44-9.61,7.4-19.07,11.78-28.29,2.59-5.45,2.89-10.16-.49-15.18-3.44-5.11-6.41-10.57-10.12-15.47-2.98-3.93-2.61-6.6,1.06-9.69,2.92-2.46,5.31-5.55,8.47-8.94,7.07,4.56,13.77,8.71,20.28,13.14,5.51,3.75,10.54,3.49,16.53,.52,8.91-4.41,18.22-8.14,27.63-11.38,6.3-2.17,10-5.77,11.3-12.21,1.53-7.53,3.25-15.02,4.95-22.79h18.5c1.67,7.57,3.46,15.02,4.93,22.53,1.33,6.79,5.22,10.42,11.83,12.61,9.19,3.06,18.27,6.73,26.9,11.13,6.27,3.2,11.5,3.28,17.22-.62,6.14-4.18,12.49-8.04,18.94-12.17,3.95,4.56,7.77,8.95,12.51,14.41-3.22,4.99-7.37,11.67-11.79,18.17-3.73,5.48-3.64,10.51-.59,16.52,4.49,8.87,8.34,18.14,11.64,27.53,2.32,6.61,6.19,10.18,13,11.39,7.26,1.3,14.42,3.17,21.74,4.83Zm-135.42,84.62c41.69-.04,75.32-33.75,75.29-75.47-.03-41.51-34.04-75.44-75.54-75.37-41.48,.06-75.35,34.09-75.3,75.63,.05,41.64,33.82,75.26,75.55,75.22Z"/>
  <path class="cls-2" d="M358.29,430.74c1.71,2.27,3.93,5.39,6.35,8.35,4.93,6.03,5.28,12.44-.13,18.01-11.43,11.78-23.07,23.37-34.94,34.7-5.42,5.18-11.59,4.88-17.37,.14-2.96-2.42-5.82-4.97-8.11-6.93,18.15-18.17,35.42-35.47,54.2-54.27Z"/>
  <path class="cls-1" d="M642.8,427.71c-41.73,.04-75.5-33.58-75.55-75.22-.05-41.54,33.82-75.57,75.3-75.63,41.51-.06,75.51,33.87,75.54,75.37,.03,41.72-33.6,75.43-75.29,75.47Zm.24-24.23c28.48-.16,50.97-23.06,50.78-51.7-.18-28.32-23.34-50.91-51.91-50.65-27.91,.26-50.47,23.26-50.4,51.4,.07,28.49,22.95,51.1,51.53,50.95Z"/>
  <path class="cls-2" d="M643.04,403.48c-28.58,.16-51.46-22.46-51.53-50.95-.07-28.14,22.49-51.15,50.4-51.4,28.57-.26,51.73,22.33,51.91,50.65,.19,28.64-22.31,51.54-50.78,51.7Z"/>
</svg>