<?xml version="1.0" encoding="UTF-8"?>
<svg id="Layer_1" data-name="Layer 1" xmlns="http://www.w3.org/2000/svg" viewBox="0 0 896 911.53">
  <defs>
    <style>
      .cls-1 {
        fill: #2684ff;
      }
    </style>
  </defs>
  <path class="cls-1" d="M681.5,514.61c0,80.61,.04,161.23-.02,241.84-.02,24.58-13.29,41.02-35.27,43.64-14.32,1.7-25.65-4.31-35.31-14.46-22.76-23.89-48.24-44.42-76.57-61.39-60.21-36.08-125.42-53.67-195.6-53.29-41.47,.22-82.94,.14-124.4,.02-71.89-.21-129.2-47.45-139.27-118.54-4.85-34.23-6.02-69.59,6.09-103.37,19.86-55.41,71.39-91.3,131.5-91.65,46.07-.26,92.17,.68,138.22-.42,100.17-2.4,185.55-39.97,256.42-110.62,8.24-8.22,16.39-15.96,28.66-17.91,19.96-3.17,40.04,9.93,44.16,29.73,1.1,5.3,1.34,10.86,1.35,16.3,.08,80.04,.06,160.08,.06,240.12Z"/>
  <path class="cls-1" d="M191.6,707.29c11.77,0,23.24-.05,34.7,0,42.34,.23,84.68,.62,127.02,.6,6.55,0,9.44,1.62,10.98,8.47,5.83,25.79,11.3,51.77,19.22,76.95,5.21,16.56,15.03,31.6,21.54,47.83,3.54,8.83,6.74,18.86,6.12,28.08-1.64,24.2-20.2,41.19-44.73,41.75-29.65,.68-59.35,.81-88.99-.04-31.32-.89-55.95-22.15-61.47-53.16-8.72-48.99-16.45-98.16-24.56-147.25-.18-1.06,.11-2.2,.17-3.23Z"/>
  <path class="cls-1" d="M810.65,486.56c9.21,0,18.43-.21,27.63,.05,15.63,.45,27.23,12.38,27.21,27.64-.03,15.26-11.62,27.24-27.33,27.5-18.42,.31-36.85,.28-55.26,0-15.59-.23-27.62-12.26-27.86-27.23-.24-15.33,11.9-27.57,27.98-27.93,9.21-.21,18.42-.04,27.63-.03Z"/>
  <path class="cls-1" d="M821.75,680.26c-1.29,11.96-6.24,20.63-16.51,25.57-10.5,5.05-21.23,4.34-29.79-3.68-14.69-13.76-29.03-27.96-42.69-42.73-9.66-10.44-8.26-26.8,1.71-36.82,9.76-9.81,25.73-11.67,36.07-2.27,15.51,14.11,30.14,29.24,44.45,44.59,3.6,3.86,4.58,10.16,6.76,15.34Z"/>
  <path class="cls-1" d="M820.68,351.11c-1.68,3.21-3.9,10.64-8.61,15.82-12.17,13.41-25.23,26.03-38.32,38.58-11.85,11.36-28.62,11.15-39.47,.1-10.52-10.72-10.67-27.49,.27-38.84,12.98-13.46,26.22-26.69,39.73-39.62,8.77-8.4,19.41-9.79,30.39-4.87,10.41,4.67,15.5,13.25,16.01,28.84Z"/>
</svg>