<?xml version="1.0" encoding="UTF-8"?>
<svg id="Layer_1" data-name="Layer 1" xmlns="http://www.w3.org/2000/svg" viewBox="0 0 896 943.27">
  <defs>
    <style>
      .cls-1, .cls-2, .cls-3 {
        fill: #fff;
      }

      .cls-2 {
        stroke-width: 4px;
      }

      .cls-2, .cls-3 {
        stroke: #2684ff;
        stroke-miterlimit: 10;
      }

      .cls-4 {
        fill: #2684ff;
      }

      .cls-3 {
        stroke-width: 10px;
      }
    </style>
  </defs>
  <path class="cls-3" d="M480.79,162.22c112,0,223.99,0,335.99,0,30.14,0,46.22,16.14,46.22,46.4,0,164.58,0,329.16,0,493.75,0,30.62-16.09,46.59-46.91,46.59-142.13,0-284.25,.06-426.38-.16-7.59-.01-11.88,1.82-15.98,8.79-38.4,65.15-112.26,97.73-187.5,83.34-71.36-13.65-128.71-73.1-139.64-146.6-8.51-57.19,7.92-107.2,47.03-149.89,2.87-3.13,4.88-8.22,5.03-12.47,.57-16.75,.13-33.53,.3-50.3,.04-4.26-.87-6.27-5.57-7.61-21.73-6.19-35.36-24.17-35.41-45.62-.04-21.53,13.58-39.91,35.17-45.75,6.07-1.64,5.77-4.85,5.76-9.18-.03-55.14-.03-110.29-.01-165.43,0-29.54,16.33-45.83,45.93-45.83,112-.01,223.99,0,335.99,0Zm-89.58,559.45h9.6c138.15,0,276.29,0,414.44,0,16.79,0,20.46-3.68,20.46-20.5,0-163.73,0-327.46,0-491.19,0-16.82-3.65-20.47-20.47-20.47-111.71,0-223.42,0-335.13,0-112,0-223.99,0-335.99,.01-12.76,0-17.9,4.51-17.92,16.14-.08,57.99-.06,115.98,.05,173.96,0,2.26,1.34,4.52,2.05,6.77,2.13-.97,4.65-1.51,6.34-2.99,19.64-17.27,39.05-34.78,58.77-51.96,4.15-3.62,5.3-6.4,3.48-12.15-8.26-25.99,7.04-53.1,33.09-59.96,26.35-6.94,52.25,8.81,58.72,35.47,3.2,13.18-.13,25.21-6.32,37.21,17.67,13.97,34.96,27.79,52.53,41.23,1.47,1.13,5.21,.45,7.3-.58,14.42-7.16,28.99-8.05,43.4-.73,4.98,2.53,7.93,1.59,11.86-1.71,22.42-18.82,44.94-37.53,67.73-55.9,4.24-3.42,4.95-6.31,3.69-11.36-5.51-22.2,5.03-44.19,25.4-54.01,19.91-9.6,44.07-4.14,57.71,13.06,14.1,17.77,13.98,42.2-.29,59.85-13.81,17.07-37.88,22.59-57.71,12.38-5.36-2.76-8.25-1.89-12.44,1.64-22.18,18.66-44.54,37.11-67.05,55.38-4.04,3.28-5.19,5.96-3.72,11.35,5.35,19.7-2.24,39.73-18.45,51.07-16.44,11.5-37.86,11.61-54.41,.26-16.4-11.25-23.89-30.77-19.04-50.87,1.05-4.36,.87-6.99-3.06-10-17.16-13.1-33.95-26.7-50.99-39.96-1.84-1.43-4.87-3.23-6.58-2.64-14.32,4.99-27.85,2.52-40.92-3.94-21.89,19.48-43.4,38.48-64.64,57.78-1.72,1.56-2.78,5.47-2.16,7.74,6.73,24.44,.32,42.62-20.34,57.05-1.79,1.25-3.81,3.72-3.86,5.67-.33,13.81-.18,27.64-.18,41.92,73.98-39.8,145.4-38.58,210.08,15.67,58.9,49.41,73.88,114.51,54.96,189.3Zm-21.05-40.94h-9.16c-31.53,0-63.14,1.43-94.56-.42-28.61-1.69-53.54,4.79-77.98,19.68-29.49,17.96-60.65,33.18-91.1,49.59,25.79,43.97,90.29,80.5,159.64,63.31,62.58-15.51,113.79-75.01,113.17-132.15Zm-285.77,44.49c2.24-1.12,4.51-2.18,6.71-3.36,36.71-19.76,73.34-39.67,110.2-59.15,5.4-2.86,6.89-6.12,6.86-11.87-.22-41.46-.12-82.91-.12-124.37v-8.22c-106.25,9.05-163.99,122.4-123.64,206.97Zm286.11-72.1c-6.41-82.75-79.94-133.85-134.6-134.22v134.22h134.6Zm164.97-361.63c-.19-11.22-9.74-20.38-20.96-20.1-10.85,.27-19.81,9.45-19.86,20.34-.05,11.23,9.31,20.59,20.52,20.51,11.22-.08,20.48-9.55,20.29-20.75Zm-293.18,34.4c11.2-.07,20.47-9.58,20.26-20.79-.2-10.88-9.3-19.94-20.14-20.06-11.24-.13-20.64,9.13-20.68,20.37-.03,11.22,9.32,20.55,20.56,20.48Zm122.42,109.16c11.2,.15,20.63-9.17,20.65-20.39,.01-10.87-8.93-20.12-19.76-20.45-11.21-.34-20.81,8.77-21.06,19.99-.25,11.22,8.93,20.71,20.17,20.86Zm-259,13.65c11.17,.04,20.53-9.43,20.4-20.64-.13-10.89-9.13-19.99-19.99-20.21-11.23-.22-20.75,9.01-20.84,20.2-.08,11.24,9.18,20.61,20.43,20.64Z"/>
  <path class="cls-4" d="M391.21,721.68c18.92-74.79,3.94-139.89-54.96-189.3-64.68-54.26-136.1-55.48-210.08-15.67,0-14.28-.16-28.1,.18-41.92,.05-1.95,2.07-4.42,3.86-5.67,20.65-14.43,27.06-32.61,20.34-57.05-.62-2.27,.44-6.18,2.16-7.74,21.24-19.3,42.75-38.3,64.64-57.78,13.07,6.46,26.6,8.93,40.92,3.94,1.7-.59,4.74,1.2,6.58,2.64,17.04,13.27,33.83,26.86,50.99,39.96,3.94,3.01,4.11,5.64,3.06,10-4.85,20.1,2.64,39.63,19.04,50.87,16.55,11.35,37.97,11.24,54.41-.26,16.21-11.34,23.8-31.38,18.45-51.07-1.46-5.39-.32-8.07,3.72-11.35,22.5-18.27,44.87-36.72,67.05-55.38,4.19-3.53,7.07-4.4,12.44-1.64,19.83,10.21,43.9,4.7,57.71-12.38,14.27-17.65,14.39-42.08,.29-59.85-13.64-17.19-37.79-22.66-57.71-13.06-20.37,9.82-30.91,31.82-25.4,54.01,1.25,5.05,.55,7.94-3.69,11.36-22.79,18.37-45.31,37.08-67.73,55.9-3.93,3.3-6.88,4.24-11.86,1.71-14.41-7.32-28.98-6.43-43.4,.73-2.09,1.04-5.83,1.71-7.3,.58-17.57-13.45-34.86-27.27-52.53-41.23,6.2-12,9.52-24.03,6.32-37.21-6.47-26.66-32.37-42.41-58.72-35.47-26.05,6.86-41.34,33.97-33.09,59.96,1.83,5.75,.67,8.53-3.48,12.15-19.72,17.17-39.14,34.69-58.77,51.96-1.69,1.48-4.21,2.02-6.34,2.99-.71-2.26-2.05-4.51-2.05-6.77-.11-57.99-.13-115.98-.05-173.96,.02-11.63,5.16-16.14,17.92-16.14,112-.02,223.99-.01,335.99-.01,111.71,0,223.42,0,335.13,0,16.82,0,20.47,3.65,20.47,20.47,0,163.73,0,327.46,0,491.19,0,16.82-3.68,20.5-20.46,20.5-138.15,0-276.29,0-414.44,0h-9.6Zm103.37-54.99c-11.01-2.22-13.63-5.71-13.64-17.56-.02-70.21,0-140.41-.03-210.62,0-10.74-5.15-16.98-13.66-16.97-8.51,.02-13.59,6.24-13.59,17.02-.03,71.34-.1,142.68,.04,214.03,.05,23.56,17.38,41.64,40.55,41.69,99.48,.21,198.96,.12,298.44,.07,9.49,0,15.43-5.29,15.65-13.26,.23-8.29-5.93-13.82-15.79-13.97-8.15-.12-16.29-.02-25.07-.02,0-4.05,0-7.13,0-10.2,0-32.4,.08-64.81-.04-97.21-.06-17.51-11.38-28.81-28.73-29.03-7.67-.1-15.35-.05-23.02-.01-19.16,.11-30.03,10.98-30.06,30.24-.06,32.12-.02,64.24-.02,96.35v9.3h-13.65c0-3.62,0-6.71,0-9.79,0-59.4,.04-118.81-.03-178.21-.02-18.55-11.21-29.62-29.73-29.76-5.4-.04-10.84,.41-16.19-.08-23.61-2.17-36.73,10.77-36.26,36.42,1.05,57.4,.33,114.82,.33,172.24v9.14h-13.65v-9.86c0-45.76,.05-91.52-.03-137.28-.03-18.46-11.29-29.52-29.85-29.64-5.97-.04-11.94,0-17.91,0-24.58,0-34.09,9.45-34.09,33.91,0,47.45,0,94.91,0,143.07Zm225.06-395.3c19.33,0,38.65,.04,57.98-.02,10.77-.03,17.03-5.08,17.08-13.56,.05-8.51-6.2-13.68-16.92-13.7-38.65-.05-77.31-.04-115.96,0-10.78,.01-17.02,5.06-17.07,13.55-.05,8.51,6.21,13.67,16.92,13.71,19.33,.06,38.65,.02,57.98,.02Zm.08,27.29c-19.33,0-38.65-.04-57.98,.02-10.74,.03-17,5.13-17,13.62,0,8.5,6.25,13.62,16.99,13.63,38.65,.04,77.31,.05,115.96,0,10.73-.01,17-5.15,17-13.63,0-8.51-6.24-13.59-17-13.62-19.33-.06-38.65-.02-57.98-.02Zm.86,54.58c-19.61,0-39.22-.04-58.83,.02-10.75,.03-17,5.12-17,13.62,0,8.5,6.25,13.62,16.99,13.64,38.65,.05,77.31,.05,115.96,0,10.73-.01,17.01-5.14,17.01-13.63,0-8.51-6.24-13.59-16.99-13.63-19.04-.06-38.09-.02-57.13-.02Zm-89.61-95.17c.2-7.3-5.71-13.64-13.01-13.96-7.29-.32-13.71,5.5-14.14,12.81-.44,7.64,5.76,14.27,13.43,14.38,7.3,.1,13.53-5.9,13.73-13.23Zm-13.43,40.62c-7.32-.09-13.54,5.9-13.73,13.23-.2,7.66,6.2,14.11,13.85,13.96,7.31-.14,13.34-6.32,13.31-13.65-.03-7.32-6.12-13.45-13.43-13.54Zm13.43,68.05c-.07-7.32-6.19-13.42-13.5-13.47-7.33-.05-13.51,5.97-13.66,13.3-.16,7.66,6.27,14.08,13.92,13.89,7.31-.18,13.31-6.39,13.24-13.72Z"/>
  <path class="cls-3" d="M370.16,680.74c.62,57.15-50.59,116.65-113.17,132.15-69.35,17.19-133.84-19.34-159.64-63.31,30.45-16.41,61.61-31.63,91.1-49.59,24.45-14.89,49.37-21.37,77.98-19.68,31.42,1.86,63.03,.42,94.56,.42h9.16Z"/>
  <path class="cls-3" d="M84.39,725.23c-40.35-84.57,17.39-197.92,123.64-206.97v8.22c0,41.46-.1,82.92,.12,124.37,.03,5.75-1.45,9.01-6.86,11.87-36.86,19.47-73.49,39.39-110.2,59.15-2.2,1.18-4.47,2.24-6.71,3.36Z"/>
  <path class="cls-3" d="M370.5,653.14H235.9c0-44.87,0-89.54,0-134.22,54.65,.37,128.18,51.47,134.59,134.22Z"/>
  <path class="cls-2" d="M535.47,291.51c.19,11.2-9.07,20.67-20.29,20.75-11.21,.08-20.58-9.28-20.52-20.51,.05-10.89,9.01-20.07,19.86-20.34,11.22-.28,20.77,8.88,20.96,20.1Z"/>
  <path class="cls-2" d="M242.28,325.91c-11.23,.07-20.59-9.25-20.56-20.48,.03-11.23,9.44-20.5,20.68-20.37,10.84,.12,19.94,9.19,20.14,20.06,.21,11.21-9.06,20.72-20.26,20.79Z"/>
  <path class="cls-2" d="M364.7,435.07c-11.24-.15-20.42-9.64-20.17-20.86,.25-11.21,9.85-20.33,21.06-19.99,10.83,.33,19.77,9.58,19.76,20.45-.01,11.22-9.45,20.54-20.65,20.39Z"/>
  <path class="cls-2" d="M105.71,448.71c-11.24-.04-20.51-9.4-20.43-20.64,.08-11.19,9.61-20.43,20.84-20.2,10.86,.22,19.86,9.32,19.99,20.21,.13,11.21-9.23,20.68-20.4,20.64Z"/>
  <path class="cls-4" d="M494.58,666.69c0-48.17,0-95.62,0-143.07,0-24.45,9.51-33.9,34.09-33.91,5.97,0,11.94-.03,17.91,0,18.56,.13,29.81,11.18,29.85,29.64,.08,45.76,.03,91.52,.03,137.28v9.86h13.65v-9.14c0-57.42,.72-114.84-.33-172.24-.47-25.65,12.65-38.6,36.26-36.42,5.36,.49,10.79,.04,16.19,.08,18.51,.14,29.71,11.22,29.73,29.76,.07,59.4,.02,118.81,.03,178.21,0,3.08,0,6.17,0,9.79h13.65v-9.3c0-32.12-.04-64.24,.02-96.35,.04-19.26,10.9-30.13,30.06-30.24,7.67-.04,15.35-.09,23.02,.01,17.36,.22,28.67,11.52,28.73,29.03,.12,32.4,.04,64.8,.04,97.21,0,3.07,0,6.15,0,10.2,8.78,0,16.93-.1,25.07,.02,9.86,.15,16.02,5.68,15.79,13.97-.22,7.97-6.16,13.25-15.65,13.26-99.48,.05-198.96,.14-298.44-.07-23.17-.05-40.51-18.13-40.55-41.69-.14-71.34-.07-142.68-.04-214.03,0-10.78,5.08-17,13.59-17.02,8.51-.02,13.65,6.22,13.66,16.97,.04,70.21,0,140.41,.03,210.62,0,11.85,2.62,15.34,13.64,17.56Zm149.79-189.95h-26.56v189.83h26.56v-189.83Zm-95.56,40.71h-26.44v149.05h26.44v-149.05Zm164.55,40.89v108.2h26.22v-108.2h-26.22Z"/>
  <path class="cls-4" d="M719.65,271.38c-19.33,0-38.65,.05-57.98-.02-10.71-.04-16.97-5.2-16.92-13.71,.05-8.48,6.29-13.54,17.07-13.55,38.65-.04,77.31-.04,115.96,0,10.72,.01,16.97,5.18,16.92,13.7-.05,8.48-6.31,13.53-17.08,13.56-19.33,.06-38.65,.02-57.98,.02Z"/>
  <path class="cls-4" d="M719.73,298.68c19.33,0,38.65-.04,57.98,.02,10.76,.03,16.99,5.12,17,13.62,0,8.48-6.27,13.62-17,13.63-38.65,.05-77.31,.05-115.96,0-10.74-.01-16.99-5.13-16.99-13.63,0-8.49,6.25-13.59,17-13.62,19.33-.06,38.65-.02,57.98-.02Z"/>
  <path class="cls-4" d="M720.58,353.26c19.04,0,38.09-.04,57.13,.02,10.75,.03,16.99,5.12,16.99,13.63,0,8.48-6.27,13.61-17.01,13.63-38.65,.05-77.31,.05-115.96,0-10.74-.01-16.99-5.13-16.99-13.64,0-8.49,6.26-13.59,17-13.62,19.61-.06,39.22-.02,58.83-.02Z"/>
  <path class="cls-4" d="M630.97,258.09c-.2,7.33-6.43,13.33-13.73,13.23-7.67-.11-13.87-6.74-13.43-14.38,.42-7.31,6.85-13.13,14.14-12.81,7.3,.32,13.21,6.66,13.01,13.96Z"/>
  <path class="cls-4" d="M617.54,298.71c7.31,.09,13.4,6.22,13.43,13.54,.03,7.33-5.99,13.51-13.31,13.65-7.66,.14-14.05-6.3-13.85-13.96,.19-7.33,6.41-13.31,13.73-13.23Z"/>
  <path class="cls-4" d="M630.97,366.76c.07,7.32-5.93,13.54-13.24,13.72-7.65,.18-14.08-6.23-13.92-13.89,.15-7.33,6.33-13.34,13.66-13.3,7.31,.05,13.43,6.15,13.5,13.47Z"/>
  <path class="cls-1" d="M644.37,476.74v189.83h-26.56v-189.83h26.56Z"/>
  <path class="cls-1" d="M548.81,517.45v149.05h-26.44v-149.05h26.44Z"/>
  <path class="cls-1" d="M713.36,558.34h26.22v108.2h-26.22v-108.2Z"/>
</svg>