<?xml version="1.0" encoding="UTF-8"?>
<svg id="Layer_1" data-name="Layer 1" xmlns="http://www.w3.org/2000/svg" viewBox="0 0 896 957.66">
  <defs>
    <style>
      .cls-1 {
        fill: #2684ff;
      }
    </style>
  </defs>
  <path class="cls-1" d="M758.12,83v50.64h-20.5v-50.64h20.5Z"/>
  <path class="cls-1" d="M402.73,744.16c2.11-48.29-14.49-76.84-50.47-88.33-31.94-10.2-67.09,2.56-84.85,31.05-11.24,18.03-14.29,37.5-9.09,58.16,5.16,20.46,20.14,33.72,36.11,47.61-38.34,17.2-75.76,33.99-113.81,51.06-1.35-2.58-2.6-4.68-3.59-6.9-45.65-101.92-91.29-203.84-136.88-305.78-8.27-18.48-2.85-29.77,17.89-36.35,6.08,18.84,12.17,37.7,18.23,56.56,4.09,12.71,8.13,25.44,12.19,38.16,6.51,20.42,22.16,28.42,42.53,21.73,19.01-6.24,32.31-23.76,32.44-47.54,.1-17.47-3.21-34.99-5.46-52.42-1.53-11.83-3.7-23.59-5.95-35.32-.99-5.18,.71-7.92,4.95-11.12,7.65-5.79,15.09-12.21,21.2-19.56,4.93-5.93,10.4-9.9,17.31-12.96,52.45-23.3,104.79-46.85,157.18-70.3,11.26-5.04,14.15-4,19.05,7.17,16.67,37.99,33.23,76.02,49.88,114.02,4.73,10.8,14.6,14.75,22.25,8.32,3.22-2.71,5.18-7.29,6.9-11.36,8.77-20.73,28.27-33.61,51.05-33.36,21.48,.23,40.91,13.68,48.94,33.88,12.8,32.19-8.16,65.83-43.01,68.54-8.76,.68-17.64,.32-26.44-.09-17.96-.83-24.89,8.79-17.64,25.07,15.26,34.27,30.59,68.5,45.87,102.76,5.67,12.7,3.79,17.72-8.85,23.4-32.36,14.54-64.73,29.04-97.93,43.92Z"/>
  <path class="cls-1" d="M533.57,681.03c-15.91-35.62-31.72-71.03-48.16-107.83,26.18,1.57,49.62-1.46,68.06-20.52,12.6-13.03,19.31-28.74,21.63-46.33,4.41-33.43-14.47-65.52-45.5-78.15-34.37-13.99-66.65-2.55-93.95,33.71-16.87-37.58-33.61-74.86-50.73-113,2-.91,4.39-2.11,6.86-3.12,40.18-16.59,80.38-33.11,120.52-49.79,3.6-1.5,7.45-3.33,10.07-6.07,6.88-7.17,3.71-17.59-5.57-22.47-8.19-4.31-17.11-8.41-23.48-14.81-15.35-15.44-19.3-34.55-11.82-55.11,7.61-20.91,23.31-32.85,45.24-35.1,20.91-2.15,37.73,6.26,49.87,23.53,7.08,10.07,7.91,21.74,7.88,33.49-.02,6.53-.53,13.08-1.12,19.59-1.37,15.26,8.9,23.37,23.01,17.54,35.71-14.74,71.31-29.76,106.95-44.66,4.67-1.95,9.38-3.83,14.69-5.99,10.93,26.18,21.62,51.82,32.34,77.45,32.33,77.33,64.67,154.65,96.98,231.98,8.15,19.51,3.76,29.55-17,37.37-1.12-3.05-2.36-6.07-3.35-9.17-8.33-25.97-16.56-51.97-24.92-77.93-5.52-17.15-19.61-25.21-37.18-21.43-21.24,4.57-36.37,21.99-36.86,47.36-.36,18.56,3.23,37.23,5.53,55.79,1.44,11.56,4.1,22.96,5.44,34.52,.33,2.81-1.53,7.18-3.81,8.74-5.8,3.96-12.22,7.17-18.72,9.9-62.59,26.31-125.25,52.46-187.9,78.65-1.55,.65-3.16,1.19-4.98,1.87Z"/>
  <path class="cls-1" d="M710.32,629.52c-3.09,6.31-5.47,11.15-8.22,16.77,5.92,2.9,11.67,5.73,17.92,8.79,3.63-6.77,7.14-13.22,10.55-19.72,7.97-15.2,19.97-26.26,35.65-32.85,5.68-2.39,5.92-5.41,5.07-10.44-4.77-28.3-10.12-56.55-13.44-85.03-1.15-9.88,1.76-20.8,5.18-30.41,1.77-4.98,8.13-9.38,13.44-11.8,8.62-3.93,13.81-.78,16.73,8.39,13.6,42.76,27.19,85.52,40.54,128.36,1.02,3.26,.89,7.32,.01,10.67-8.51,32.42-16.67,64.95-26.34,97.02-3.28,10.88-10.41,20.64-16.25,30.65-.91,1.56-4.31,2.33-6.57,2.34-63.73,.17-127.46,.26-191.19,.06-3.14,0-7.12-1.97-9.27-4.34-10.65-11.65-16.44-25.73-18.9-41.24-.67-4.22-.25-7.19,4.71-9.23,45.43-18.7,90.73-37.72,136.08-56.63,.97-.4,2-.64,4.29-1.36Z"/>
  <path class="cls-1" d="M347.36,103.82v115.81H77.74V103.82H347.36Z"/>
  <path class="cls-1" d="M823.77,948.97h-269.54v-111.52h269.54v111.52Z"/>
  <path class="cls-1" d="M334.53,348.36c-33.53,15.04-64.87,29.1-96.21,43.14-20.48,9.17-41.05,18.15-61.39,27.61-3.83,1.78-7.55,4.93-9.99,8.39-9.64,13.66-22.14,23.47-38.29,29.54,3.48,21.45,7.24,42.39,10.18,63.45,2.07,14.84,4.49,29.87,4.11,44.75-.4,15.71-8.59,24.73-20.13,27.43-7.24,1.69-11.92-.4-14.33-7.97-13.81-43.29-27.91-86.49-41.64-129.81-1.03-3.26-.67-7.37,.22-10.77,8.38-31.86,16.54-63.8,25.89-95.38,2.92-9.85,8.87-18.92,14.35-27.8,1.38-2.24,6.24-3.24,9.51-3.28,52.91-.55,105.83-.85,158.75-1.22,10.81-.08,21.64-.69,32.42-.16,3.67,.18,8.56,2.18,10.53,4.99,5.79,8.27,10.39,17.36,16.02,27.1Z"/>
  <path class="cls-1" d="M100.38,295.74v-53.3c2.46-.24,4.63-.62,6.81-.64,69.95-.58,139.89-1,209.84-1.84,8.07-.1,11,1.88,10.64,10.29-.63,14.7-.18,29.44-.18,45.49H100.38Z"/>
  <path class="cls-1" d="M574.02,763.23h227.5c0,15.74,.05,31.28-.02,46.83-.03,6.52-5.31,4.92-8.8,4.97-25.3,.36-50.61,.46-75.91,.66-44.35,.33-88.71,.69-133.06,.98-3.06,.02-6.12-.46-9.7-.75v-52.68Z"/>
  <path class="cls-1" d="M242.74,876.13c7.99,15.48,15.37,29.79,23.35,45.24-5.92,3.08-11.69,6.09-17.95,9.35-7.87-15.25-15.37-29.77-23.32-45.19,5.9-3.09,11.49-6.03,17.93-9.41Z"/>
  <path class="cls-1" d="M800.29,155.13c7.96-15.42,15.55-30.15,23.41-45.38,6.29,3.3,11.95,6.27,17.92,9.4-7.86,15.25-15.36,29.77-23.24,45.05-6.13-3.07-11.8-5.91-18.09-9.06Z"/>
  <path class="cls-1" d="M120.43,885.1c-7.94,15.4-15.57,30.18-23.39,45.33-6.22-3.25-11.68-6.11-17.88-9.36,7.74-15.06,15.22-29.61,23.2-45.16,6.02,3.07,11.66,5.93,18.06,9.19Z"/>
  <path class="cls-1" d="M163.21,906.33h19.7v50.2h-19.7v-50.2Z"/>
  <path class="cls-1" d="M695.79,155.26c-6.26,3.19-11.72,5.98-17.99,9.18-7.83-15.15-15.35-29.7-23.29-45.06,5.98-3.16,11.62-6.13,17.93-9.46,7.86,15.28,15.47,30.06,23.34,45.35Z"/>
</svg>