<?xml version="1.0" encoding="UTF-8"?>
<svg id="Layer_1" data-name="Layer 1" xmlns="http://www.w3.org/2000/svg" viewBox="0 0 896 943.27">
  <defs>
    <style>
      .cls-1 {
        fill: #2684ff;
      }
    </style>
  </defs>
  <path class="cls-1" d="M625.66,179.62c-10.43,10.23-19.91,20.18-30.08,29.37-13.51,12.21-22.76,25.98-19.03,46.43-89.58-34.76-176.17-31.85-259.86,13.3-56.44,30.45-98.56,75.38-125.93,133.43-56.03,118.86-28.88,256.88,67.58,346.27,94.19,87.27,236.17,103.66,347.9,39.52,65.19-37.42,110.47-91.92,134.74-163.18,24.15-70.92,20.61-141.28-7.33-211.26,3.12-.18,5.43-.5,7.73-.43,12.6,.38,23.02-4.2,31.8-13.18,11.85-12.11,23.91-24.01,36-36.13,64.23,124.65,56.49,322.87-91.22,454.37-151.23,134.63-376.79,132.05-522.1-4.25C49.32,676.41,29.66,452.19,150.13,295.33c125.24-163.07,332.82-187,475.53-115.71Z"/>
  <path class="cls-1" d="M644.27,438.54c39.86,74.67,28.13,186.22-57.48,253.77-82.07,64.75-201.22,57.07-274.52-17.66-74.69-76.15-80.37-194.39-12.58-276.53,69.41-84.1,179.57-91.93,250.52-53.57-1.26,1.45-2.39,2.93-3.7,4.23-20.55,20.58-41.01,41.26-61.84,61.56-2.44,2.38-7.07,4.16-10.38,3.75-64.95-8.19-121.88,36.7-130.65,103.38-7.91,60.12,37.94,118.63,99.56,127.05,72.35,9.89,135.98-47.41,131.99-120.28-.71-12.96,2.82-20.69,11.6-28.92,17.68-16.56,34.44-34.11,51.59-51.23,1.87-1.87,3.85-3.63,5.87-5.54Z"/>
  <path class="cls-1" d="M718.08,213.97c12.17-13.72,24.12-23.48,41.44-22.17,10.01,.75,18.87,4.49,25.9,11.75,9.38,9.69,13.13,21.34,11.23,34.77-1.89,13.35-10.82,22.32-21.66,32.48,18.45,0,34.73,0,51.01,0,2.96,0,6.34-.86,8.79,.26,4.1,1.87,9.36,4.28,10.9,7.86,1.53,3.56-.58,8.92-1.79,13.3-.51,1.83-2.79,3.18-4.31,4.71-27.61,27.62-55.3,55.15-82.77,82.91-5.09,5.15-10.49,7.58-17.82,7.48-23.69-.33-47.4,.12-71.09-.28-6.47-.11-10.94,1.74-15.48,6.31-53.75,54.03-107.74,107.83-161.56,161.79-11.21,11.24-24.03,17.1-40.06,13.52-29.22-6.53-41.4-40.65-22.91-64.19,2.32-2.95,5.06-5.58,7.73-8.25,53.5-53.52,106.98-107.06,160.61-160.46,3.91-3.89,5.68-7.72,5.61-13.33-.31-24.5-.5-49.02,.16-73.51,.14-5.3,2.66-11.77,6.32-15.53,27.99-28.75,56.56-56.93,84.89-85.35,4.61-4.62,9.44-8.33,16.35-5.65,7.17,2.78,8.66,8.73,8.59,15.75-.17,17.74-.06,35.49-.06,55.86Z"/>
</svg>