<?xml version="1.0" encoding="UTF-8"?>
<svg id="Layer_1" data-name="Layer 1" xmlns="http://www.w3.org/2000/svg" viewBox="0 0 896 957.66">
  <defs>
    <style>
      .cls-1, .cls-2 {
        fill: #fff;
      }

      .cls-2 {
        stroke: #2684ff;
        stroke-miterlimit: 10;
        stroke-width: 5px;
      }

      .cls-3 {
        fill: #2684ff;
      }
    </style>
  </defs>
  <path class="cls-2" d="M330.22,285.13c6.01-5.38,15.18-5.97,24.77-5.93,39.19,.18,78.38,.22,117.56-.03,10.66-.07,19.83,2.43,25.79,9.55,15.34-2.93,29.69-5.81,44.09-8.39,31.43-5.62,62.9-11.01,94.33-16.63,16.76-3,30.92,6.35,33.94,23.21,9.1,50.84,18.01,101.73,26.99,152.59,8.55,48.4,17.09,96.8,25.64,145.2,6.48,36.71,13.12,73.4,19.41,110.14,2.94,17.19-6.49,30.39-23.5,33.83-5.67,1.15-11.38,2.11-17.01,4.04,1.59,0,3.18,0,4.76,0,20.26,0,40.53,0,60.79,.02,16.09,.02,24.94,8.78,24.98,24.77,.03,13.56,.02,27.13-.05,40.69-.08,17.71-8.12,25.66-25.89,25.66-213.18,.01-426.37,.04-639.55-.05-4.08,0-8.5-.47-12.18-2.06-8.9-3.86-12.78-11.43-12.84-20.93-.09-14.57-.06-29.14,0-43.71,.07-15.37,9.04-24.32,24.36-24.38,8.67-.03,17.34,0,25.02,0,0-7.18,0-13.8,0-20.43,0-133.3,0-266.6,.04-399.91,0-3.99,.02-8.12,.95-11.96,3.03-12.46,14.21-21.09,27.24-21.11,43.21-.08,86.41-.26,129.62,.21,6.48,.07,12.92,3.4,20.73,5.61Zm258.65,447.48c5.29-.92,11.71-2.03,18.13-3.16,36.39-6.39,72.78-12.76,109.16-19.21,6.07-1.08,9.06-5.55,8.11-11.71-.66-4.3-1.52-8.56-2.27-12.84-10.82-61.58-21.62-123.16-32.47-184.74-12.3-69.81-24.66-139.6-36.97-209.41-1.36-7.71-5.34-10.52-13.13-9.14-7.41,1.31-14.82,2.6-22.22,3.9-34.25,6-68.5,11.99-102.75,18.01-6.46,1.14-9.45,5.25-8.66,11.81,.16,1.32,.56,2.62,.79,3.93,12,68.16,24,136.33,35.99,204.49,7.88,44.79,15.72,89.58,23.62,134.36,3.83,21.73,7.69,43.45,11.66,65.16,1.12,6.14,4.26,8.63,11.02,8.54Zm-269.8-217.27c0-68.16,0-136.32,0-204.48,0-10.05-2.67-12.67-12.86-12.67-40.86,0-81.73,0-122.59,0-10.56,0-13.3,2.75-13.3,13.42,0,135.99,0,271.98,0,407.97,0,10.37,2.75,13.15,13.04,13.16,40.7,0,81.39,0,122.09,0,11.25,0,13.62-2.33,13.62-13.4,0-67.99,0-135.99,0-203.98Zm18.87,.03h-.02c0,68.33,0,136.67,0,205,0,9.14,3.14,12.38,12.3,12.39,41.54,.01,83.07,0,124.61-.04,8.95,0,11.91-3.06,11.91-12.17,0-136.67,0-273.34,0-410.01,0-9.37-2.96-12.35-12.24-12.35-41.2,0-82.4,0-123.61,0-10.24,0-12.95,2.76-12.95,13.18,0,68,0,136,0,204Zm110.1,236.15c-106.33,0-212.67,0-319,0q-8.01,0-8.01,8.2c0,12.56-.05,25.12,0,37.68,.03,7.68,.09,7.69,7.93,7.69,112.7,0,225.39,0,338.09,0,99.97,0,199.94,0,299.91,0,6.81,0,7.02-.21,7.03-7.09,.02-13.06,.01-26.12,0-39.18,0-7.03-.28-7.28-7.44-7.28-106.17,0-212.33,0-318.5,0Zm112.1-19.06c-17.9-101.47-35.76-202.73-53.62-303.99-.44,.03-.87,.07-1.31,.1v303.89h54.92Z"/>
  <path class="cls-3" d="M588.87,732.61c-6.75,.09-9.89-2.41-11.02-8.54-3.97-21.7-7.83-43.43-11.66-65.16-7.9-44.78-15.74-89.57-23.62-134.36-11.99-68.16-23.99-136.33-35.99-204.49-.23-1.32-.63-2.61-.79-3.93-.79-6.56,2.2-10.68,8.66-11.81,34.25-6.02,68.5-12.01,102.75-18.01,7.41-1.3,14.82-2.59,22.22-3.9,7.79-1.38,11.77,1.43,13.13,9.14,12.31,69.8,24.67,139.6,36.97,209.41,10.85,61.57,21.65,123.16,32.47,184.74,.75,4.28,1.61,8.55,2.27,12.84,.95,6.16-2.03,10.63-8.11,11.71-36.38,6.46-72.77,12.82-109.16,19.21-6.42,1.13-12.84,2.24-18.13,3.16Zm4.21-94.78c-.06,25.09,19.82,45.26,44.67,45.31,25.24,.05,45.64-20.15,45.55-45.1-.09-24.8-20.43-45.18-45.08-45.17-24.91,.02-45.09,20.11-45.14,44.96Zm55.48-200.91c-30.12,5.31-59.37,10.47-89.03,15.7,1.11,6.37,2.13,12.23,3.22,18.49,29.81-5.25,59.2-10.43,89.07-15.69-1.12-6.33-2.15-12.18-3.26-18.51Zm-9.72-55.4c-30.02,5.29-59.39,10.47-89.17,15.72,1.18,6.47,2.25,12.32,3.37,18.47,29.92-5.27,59.29-10.45,88.99-15.68-1.1-6.38-2.09-12.09-3.19-18.51Zm-9.83-55.38c-29.88,5.27-59.26,10.46-89.13,15.73,1.19,6.36,2.3,12.32,3.46,18.49,30.04-5.32,59.49-10.54,89.02-15.78-1.19-6.53-2.2-12.1-3.35-18.44Z"/>
  <path class="cls-3" d="M319.07,515.34c0,67.99,0,135.99,0,203.98,0,11.07-2.38,13.4-13.62,13.4-40.7,0-81.39,0-122.09,0-10.28,0-13.04-2.78-13.04-13.16,0-135.99,0-271.98,0-407.97,0-10.67,2.73-13.42,13.3-13.42,40.86,0,81.73,0,122.59,0,10.18,0,12.86,2.62,12.86,12.67,0,68.16,0,136.32,0,204.48Zm-29.21,132.8c-.03-24.75-20.38-45.14-45.04-45.13-24.65,.01-45.07,20.34-45.27,45.06-.2,24.78,20.41,45.26,45.48,45.19,24.91-.07,44.87-20.16,44.83-45.13Zm-.1-308.35h-89.99v18.16h89.99v-18.16Zm0,56.29h-90v18.16h90v-18.16Zm-89.92,56.18v18.3h89.83v-18.3h-89.83Z"/>
  <path class="cls-3" d="M337.94,515.37c0-68,0-136,0-204,0-10.42,2.71-13.18,12.95-13.18,41.2,0,82.4,0,123.61,0,9.29,0,12.24,2.98,12.24,12.35,0,136.67,0,273.34,0,410.01,0,9.11-2.96,12.16-11.91,12.17-41.54,.03-83.07,.05-124.61,.04-9.17,0-12.3-3.24-12.3-12.39,0-68.33,0-136.67,0-205h.02Zm74.23,177.9c24.94,.07,45.21-19.94,45.32-44.72,.11-25.04-20.25-45.55-45.19-45.53-24.65,.02-45.11,20.51-45.1,45.15,.01,24.85,20.14,45.04,44.98,45.11Zm-44.8-279.03h89.77v-18.17h-89.77v18.17Zm89.78-56.15v-18.33h-89.71v18.33h89.71Zm.16,94.31h-89.95v18.13h89.95v-18.13Z"/>
  <path class="cls-3" d="M448.04,751.52c106.17,0,212.33,0,318.5,0,7.16,0,7.43,.25,7.44,7.28,.01,13.06,.01,26.12,0,39.18,0,6.88-.22,7.09-7.03,7.09-99.97,0-199.94,0-299.91,0-112.7,0-225.39,0-338.09,0-7.84,0-7.9,0-7.93-7.69-.04-12.56,0-25.12,0-37.68q0-8.19,8.01-8.2c106.33,0,212.67,0,319,0Z"/>
  <path class="cls-1" d="M560.14,732.46h-54.92V428.57c.44-.03,.87-.07,1.31-.1,17.86,101.26,35.72,202.52,53.62,303.99Z"/>
  <path class="cls-1" d="M593.08,637.84c.06-24.85,20.24-44.95,45.14-44.96,24.65-.02,44.99,20.37,45.08,45.17,.09,24.96-20.31,45.16-45.55,45.1-24.85-.05-44.73-20.22-44.67-45.31Zm44.72,26.45c14.81,.07,26.64-11.51,26.71-26.16,.07-14.37-11.69-26.27-26.05-26.37-14.72-.11-26.57,11.58-26.61,26.25-.04,14.57,11.45,26.21,25.96,26.28Z"/>
  <path class="cls-1" d="M648.55,436.93c1.11,6.33,2.15,12.18,3.26,18.51-29.87,5.26-59.25,10.44-89.07,15.69-1.09-6.26-2.11-12.13-3.22-18.49,29.66-5.23,58.91-10.39,89.03-15.7Z"/>
  <path class="cls-1" d="M638.84,381.52c1.11,6.41,2.09,12.13,3.19,18.51-29.7,5.23-59.07,10.41-88.99,15.68-1.12-6.15-2.19-12-3.37-18.47,29.78-5.25,59.15-10.43,89.17-15.72Z"/>
  <path class="cls-1" d="M629.01,326.14c1.15,6.35,2.16,11.91,3.35,18.44-29.53,5.23-58.98,10.45-89.02,15.78-1.15-6.17-2.27-12.12-3.46-18.49,29.87-5.27,59.25-10.46,89.13-15.73Z"/>
  <path class="cls-1" d="M289.86,648.14c.03,24.97-19.92,45.06-44.83,45.13-25.06,.07-45.68-20.41-45.48-45.19,.2-24.73,20.62-45.05,45.27-45.06,24.66-.01,45,20.38,45.04,45.13Zm-18.8-.37c-.11-14.29-12.06-26-26.46-25.91-14.3,.09-26.17,12.01-26.21,26.3-.04,14.53,11.94,26.36,26.59,26.25,14.82-.11,26.19-11.72,26.08-26.64Z"/>
  <path class="cls-1" d="M289.76,339.79v18.16h-89.99v-18.16h89.99Z"/>
  <path class="cls-1" d="M289.77,396.08v18.16h-90v-18.16h90Z"/>
  <path class="cls-1" d="M199.84,452.25h89.83v18.3h-89.83v-18.3Z"/>
  <path class="cls-1" d="M412.17,693.27c-24.84-.06-44.97-20.25-44.98-45.11-.01-24.64,20.46-45.14,45.1-45.15,24.95-.02,45.3,20.5,45.19,45.53-.11,24.78-20.38,44.79-45.32,44.72Zm-.25-18.8c14.95,.06,26.62-11.34,26.68-26.07,.07-14.68-11.74-26.59-26.3-26.54-14.4,.05-26.17,11.8-26.21,26.17-.04,14.57,11.51,26.38,25.83,26.44Z"/>
  <path class="cls-1" d="M367.38,414.24v-18.17h89.77v18.17h-89.77Z"/>
  <path class="cls-1" d="M457.16,358.09h-89.71v-18.33h89.71v18.33Z"/>
  <path class="cls-1" d="M457.32,452.4v18.13h-89.95v-18.13h89.95Z"/>
  <path class="cls-3" d="M637.79,664.29c-14.5-.07-26-11.71-25.96-26.28,.04-14.67,11.89-26.36,26.61-26.25,14.37,.11,26.12,12.01,26.05,26.37-.07,14.65-11.9,26.23-26.71,26.16Z"/>
  <path class="cls-3" d="M271.06,647.77c.11,14.92-11.26,26.53-26.08,26.64-14.65,.11-26.62-11.72-26.59-26.25,.04-14.29,11.91-26.2,26.21-26.3,14.39-.09,26.35,11.61,26.46,25.91Z"/>
  <path class="cls-3" d="M411.92,674.47c-14.32-.05-25.87-11.87-25.83-26.44,.04-14.37,11.81-26.12,26.21-26.17,14.56-.05,26.37,11.87,26.3,26.54-.07,14.73-11.73,26.12-26.68,26.07Z"/>
</svg>