<?xml version="1.0" encoding="UTF-8"?>
<svg id="Layer_1" data-name="Layer 1" xmlns="http://www.w3.org/2000/svg" viewBox="0 0 896 943.27">
  <defs>
    <style>
      .cls-1 {
        fill: #2684ff;
      }
    </style>
  </defs>
  <path class="cls-1" d="M38,582.75c7.07-15.16,19.3-19.54,35.42-19.22,36.63,.72,73.28,.23,109.92,.23,2.92,0,5.83,0,9.89,0,0,3.48,0,6.32,0,9.16,0,31.52-.15,63.04,.07,94.55,.13,17.64,12.28,31.17,29.72,33.94,15.77,2.5,31.62-6.83,36.88-22.38,1.69-4.98,2.31-10.53,2.35-15.83,.22-29.9,.11-59.8,.11-89.7,0-2.9,0-5.81,0-9.74h8.66c38.8,0,77.6-.04,116.39,.02,20,.03,30.16,10.33,30.16,30.57,.03,104.79-.18,209.58,.22,314.36,.06,15.87-4.46,27.66-19.21,34.56H57.4c-9.1-3.84-15.47-10.4-19.4-19.4v-341.12Z"/>
  <path class="cls-1" d="M505.31,943.27c-14.81-6.87-19.27-18.7-19.21-34.58,.41-103.99,.21-207.98,.21-311.97,0-23.48,9.39-32.97,32.65-32.97,37.45,0,74.91,0,112.36,0,2.93,0,5.85,0,9.69,0,.2,3.35,.51,6.17,.51,8.99,.04,30.98-.19,61.96,.1,92.94,.22,24.14,20,40.23,42.5,35.14,15.6-3.53,26.42-17.24,26.5-34.23,.15-30.98,.04-61.96,.05-92.94,0-2.93,0-5.86,0-9.9h8.35c38.8,0,77.6-.03,116.4,.01,20.66,.02,30.47,10.02,30.48,30.94,0,105.07-.21,210.13,.23,315.2,.07,15.87-5,26.99-19.63,33.37H505.31Z"/>
  <path class="cls-1" d="M38,923.87c3.93,9,10.31,15.56,19.4,19.4h-19.4v-19.4Z"/>
  <path class="cls-1" d="M417.59,115.91c0,33.29-.04,65.59,.04,97.89,.01,4.56-.05,9.26,.98,13.65,4.01,16.93,19.93,27.51,37.87,25.61,16.08-1.7,29.35-15.45,29.6-32.18,.46-31.51,.2-63.03,.23-94.55,0-3.2,0-6.39,0-10.31,3.12-.18,5.7-.46,8.27-.46,39.34-.03,78.68-.05,118.02,0,18.68,.02,28.91,10.2,28.92,29.01,.05,107.22,.05,214.43,0,321.65-.01,18.68-10.29,28.81-29.21,28.82-106.97,.05-213.94,.06-320.9,0-18.78-.01-29-10.28-29.01-29.02-.05-107.22-.05-214.43,0-321.65,0-18.68,10.32-28.79,29.12-28.8,39.34-.04,78.68-.02,118.01,0,2.37,0,4.74,.21,8.07,.37Z"/>
</svg>