<?xml version="1.0" encoding="UTF-8"?>
<svg id="Layer_1" data-name="Layer 1" xmlns="http://www.w3.org/2000/svg" viewBox="0 0 896 943.27">
  <defs>
    <style>
      .cls-1 {
        fill: #2684ff;
      }
    </style>
  </defs>
  <path class="cls-1" d="M537.25,592.75c-.23,3.36-.35,5.76-.57,8.15-1.25,13.77,3.2,25.4,15.43,32,15.22,8.21,30.98,15.56,46.96,22.19,40.35,16.75,80.17,34.24,113.7,63.24,30.21,26.13,39.82,59.2,32.88,97.62-3.08,17.01-13.8,29.25-27.68,38.85-22.47,15.54-48.12,22.96-74.4,28.36-54.54,11.19-109.86,13.16-165.31,13.35-52.46,.18-104.92,.33-157.06-6.8-32.13-4.39-63.91-10.35-93.51-24.31-22.42-10.57-41.84-24.93-48.67-50.19-8.42-31.16-1.55-59.34,20.35-83.4,17.72-19.46,39.48-33.81,62.43-45.93,30.44-16.06,61.71-30.54,92.61-45.75,5.98-2.95,12.23-5.56,17.72-9.27,16.35-11.06,21.5-29.6,12.51-47.24-4.32-8.49-10.31-16.22-16.13-23.84-29.05-38.03-50-79.7-56.86-127.51-5.62-39.22-4.76-78.1,11.76-115,22.61-50.51,62.42-77.89,116.86-84.78,28.6-3.62,56.76-1.68,83.7,8.95,51.23,20.21,78.54,59.87,88.54,112.49,9.78,51.49,.45,100.54-21.21,147.61-1.24,2.69-4.39,5.41-7.22,6.27-7.64,2.32-15.54,3.95-23.45,5.18-2.52,.39-5.37-1.32-8.07-2.07-8.13-2.26-16.15-5.55-24.43-6.51-9.77-1.13-19.78-.42-29.68-.21-25.04,.53-44.58,20.19-44.44,44.52,.14,24.07,19.41,43.46,44.04,43.98,12.78,.27,25.57,.05,39.19,.05Z"/>
  <path class="cls-1" d="M716.9,452.57c0,12.31,.14,24.63-.02,36.94-.4,30.11-28.55,48.3-56.38,36.79-2.59-1.07-6.86-1.09-9.06,.36-28.87,18.99-61.06,27.77-94.86,32.11-3.5,.45-6.69,3.19-10.07,4.77-5.86,2.74-11.56,6.95-17.7,7.74-10,1.3-20.3,.57-30.46,.29-12.6-.35-21.98-9.46-22.67-21.53-.7-12.37,7.13-22.9,19.76-24.03,12.2-1.09,24.58-.63,36.85-.08,3.72,.17,8.37,1.95,10.75,4.63,4.65,5.25,9.59,5.16,15.7,4.31,27.05-3.73,52.71-11.32,76.13-25.75,3.87-2.39,5.12-4.5,4.19-9.56-1.44-7.8-1.04-15.97-1.08-23.99-.11-19.54,.15-39.09-.1-58.62-.19-15.09,5.34-26.89,17.82-35.67,1.95-1.37,3.22-5.29,3.03-7.89-6.51-86.57-73.19-161.24-158.28-177.52-106.75-20.43-207.93,45.84-231.98,151.96-1.12,4.94-1.68,10.02-2.79,14.96-2.21,9.86-1.99,17.77,8.29,24.4,8.19,5.29,11.28,15.36,11.31,25.51,.07,26.5,.39,53.01-.07,79.5-.36,21.2-17.07,37.07-38.29,37.48-21.53,.42-39.57-15.14-40.2-36.46-.8-27.01-.52-54.07-.04-81.1,.23-12.79,6.72-22.7,17.05-30.38,2.5-1.86,4.74-5.7,4.95-8.77,7.09-105.19,88.62-195.5,192.43-212.82,126.67-21.12,242.96,58.46,269.54,184.5,.94,4.44,1.79,8.93,2.21,13.45,1.08,11.51,1.4,22.41,13.29,30.1,8.48,5.48,10.62,16.34,10.72,26.61,.12,12.58,.03,25.16,.03,37.74Z"/>
</svg>