<?xml version="1.0" encoding="UTF-8"?>
<svg id="Layer_1" data-name="Layer 1" xmlns="http://www.w3.org/2000/svg" viewBox="0 0 896 943.27">
  <defs>
    <style>
      .cls-1 {
        fill: #2684ff;
      }
    </style>
  </defs>
  <path class="cls-1" d="M448.13,943.27c-2.76-.88-5.48-1.87-8.27-2.63-37.07-10.05-58.85-45.6-51.56-84.19,6.75-35.73,42.43-62.13,78.14-57.81,39.2,4.75,67.34,36.79,65.68,74.78-1.51,34.46-23.5,60.77-56.97,68.23-1.51,.34-2.93,1.06-4.39,1.61h-22.63Z"/>
  <path class="cls-1" d="M459.2,405.18c78.9,0,157.8-.01,236.71,0,14.32,0,22.83,4.84,26.86,15.09,6.34,16.11-4.25,32.79-21.64,33.24-17.22,.45-34.47,.31-51.7,.04-4.82-.08-7.79,1.21-10.46,5.42-34.45,54.3-69.14,108.46-103.55,162.79-2,3.15-3.03,7.46-3.06,11.23-.23,34.47-.1,68.94-.15,103.41-.03,21.8-14.74,32.36-35.57,25.45-29.85-9.91-59.66-19.93-89.47-29.94-15.4-5.18-20.42-12.27-20.44-28.73-.02-23.43,.16-46.86-.16-70.28-.06-4.01-1.33-8.54-3.47-11.92-34.13-53.87-68.55-107.55-102.7-161.41-2.8-4.41-5.68-6.15-10.94-6.03-15.88,.37-31.77,.17-47.66,.12-16.56-.05-27.43-9.61-27.46-24.07-.03-14.33,11.09-24.38,27.34-24.39,79.17-.05,158.34-.02,237.51-.02Z"/>
  <path class="cls-1" d="M389.39,185.1c.96-41.1,31.4-70.32,72.33-69.43,38.99,.84,68.96,32.3,68.02,71.41-.92,38.49-33.13,69.6-71.21,68.8-38.61-.81-70.03-32.97-69.14-70.78Z"/>
  <path class="cls-1" d="M356.17,356.11c-3.77-31.57,2.33-64.85,20.17-85.53,23.05,22.22,50.92,33.29,82.82,33.35,32.03,.05,60.09-10.7,83.59-33.5,20.13,25.47,22.62,54.68,20.7,85.68h-207.27Z"/>
  <path class="cls-1" d="M347.55,144.91c-8.47,26.43-8.99,52.33-.89,78.34,.59,1.9,.09,4.77-1.01,6.48-10,15.52-20.25,30.89-30.62,46.59-27.88-10.93-44.34-45.6-36.28-78.94,7.82-32.31,38.12-55.7,68.79-52.47Z"/>
  <path class="cls-1" d="M604.1,276.53c-10.36-15.76-20.42-30.94-30.28-46.24-1.15-1.78-2.22-4.57-1.66-6.36,8.34-26.26,7.85-52.41-.5-78.52,24.44-5.77,56.27,15.97,66.53,45.18,12.17,34.64-2.48,70.75-34.09,85.93Z"/>
  <path class="cls-1" d="M242.7,356.43c1.06-21.41,7.8-39.89,20.18-56.89,7.54,5.49,14.79,10.82,22.1,16.06,1.52,1.09,3.22,1.93,4.88,2.82,5.59,2.99,14.85,4.93,16.02,9.14,2.49,8.89,.76,18.97,.76,28.87h-63.94Z"/>
  <path class="cls-1" d="M676.28,356.3h-63.96c0-9.26-.17-18.08,.16-26.87,.06-1.61,1.86-3.7,3.41-4.63,13.31-7.91,26.76-15.6,41.12-23.91,11.53,15.26,18.16,33.92,19.27,55.41Z"/>
</svg>